# Tiled2Unity generated file. Do not modify by hand.
# Wavefront file for 'Test-B_mesh_0003.obj'

# Vertices (Count = 476)
v 0 -48 0
v -48 -48 0
v -48 0 0
v 0 0 0
v -48 -48 0
v -96 -48 0
v -96 0 0
v -48 0 0
v -96 -48 0
v -144 -48 0
v -144 0 0
v -96 0 0
v -144 -48 0
v -192 -48 0
v -192 0 0
v -144 0 0
v -192 -48 0
v -240 -48 0
v -240 0 0
v -192 0 0
v -240 -48 0
v -288 -48 0
v -288 0 0
v -240 0 0
v -288 -48 0
v -336 -48 0
v -336 0 0
v -288 0 0
v -336 -48 0
v -384 -48 0
v -384 0 0
v -336 0 0
v -384 -48 0
v -432 -48 0
v -432 0 0
v -384 0 0
v -432 -48 0
v -480 -48 0
v -480 0 0
v -432 0 0
v -480 -48 0
v -528 -48 0
v -528 0 0
v -480 0 0
v -528 -48 0
v -576 -48 0
v -576 0 0
v -528 0 0
v -576 -48 0
v -624 -48 0
v -624 0 0
v -576 0 0
v -624 -48 0
v -672 -48 0
v -672 0 0
v -624 0 0
v -672 -48 0
v -720 -48 0
v -720 0 0
v -672 0 0
v -720 -48 0
v -768 -48 0
v -768 0 0
v -720 0 0
v -768 -48 0
v -816 -48 0
v -816 0 0
v -768 0 0
v 0 -96 0
v -48 -96 0
v -48 -48 0
v 0 -48 0
v -48 -96 0
v -96 -96 0
v -96 -48 0
v -48 -48 0
v -96 -96 0
v -144 -96 0
v -144 -48 0
v -96 -48 0
v -144 -96 0
v -192 -96 0
v -192 -48 0
v -144 -48 0
v -192 -96 0
v -240 -96 0
v -240 -48 0
v -192 -48 0
v -240 -96 0
v -288 -96 0
v -288 -48 0
v -240 -48 0
v -288 -96 0
v -336 -96 0
v -336 -48 0
v -288 -48 0
v -336 -96 0
v -384 -96 0
v -384 -48 0
v -336 -48 0
v -384 -96 0
v -432 -96 0
v -432 -48 0
v -384 -48 0
v -432 -96 0
v -480 -96 0
v -480 -48 0
v -432 -48 0
v -480 -96 0
v -528 -96 0
v -528 -48 0
v -480 -48 0
v -528 -96 0
v -576 -96 0
v -576 -48 0
v -528 -48 0
v -576 -96 0
v -624 -96 0
v -624 -48 0
v -576 -48 0
v -624 -96 0
v -672 -96 0
v -672 -48 0
v -624 -48 0
v -672 -96 0
v -720 -96 0
v -720 -48 0
v -672 -48 0
v -720 -96 0
v -768 -96 0
v -768 -48 0
v -720 -48 0
v -768 -96 0
v -816 -96 0
v -816 -48 0
v -768 -48 0
v 0 -144 0
v -48 -144 0
v -48 -96 0
v 0 -96 0
v -48 -144 0
v -96 -144 0
v -96 -96 0
v -48 -96 0
v -96 -144 0
v -144 -144 0
v -144 -96 0
v -96 -96 0
v -144 -144 0
v -192 -144 0
v -192 -96 0
v -144 -96 0
v -192 -144 0
v -240 -144 0
v -240 -96 0
v -192 -96 0
v -240 -144 0
v -288 -144 0
v -288 -96 0
v -240 -96 0
v -288 -144 0
v -336 -144 0
v -336 -96 0
v -288 -96 0
v -336 -144 0
v -384 -144 0
v -384 -96 0
v -336 -96 0
v -384 -144 0
v -432 -144 0
v -432 -96 0
v -384 -96 0
v -432 -144 0
v -480 -144 0
v -480 -96 0
v -432 -96 0
v -480 -144 0
v -528 -144 0
v -528 -96 0
v -480 -96 0
v -528 -144 0
v -576 -144 0
v -576 -96 0
v -528 -96 0
v -576 -144 0
v -624 -144 0
v -624 -96 0
v -576 -96 0
v -624 -144 0
v -672 -144 0
v -672 -96 0
v -624 -96 0
v -672 -144 0
v -720 -144 0
v -720 -96 0
v -672 -96 0
v -720 -144 0
v -768 -144 0
v -768 -96 0
v -720 -96 0
v -768 -144 0
v -816 -144 0
v -816 -96 0
v -768 -96 0
v 0 -192 0
v -48 -192 0
v -48 -144 0
v 0 -144 0
v -48 -192 0
v -96 -192 0
v -96 -144 0
v -48 -144 0
v -96 -192 0
v -144 -192 0
v -144 -144 0
v -96 -144 0
v -144 -192 0
v -192 -192 0
v -192 -144 0
v -144 -144 0
v -192 -192 0
v -240 -192 0
v -240 -144 0
v -192 -144 0
v -240 -192 0
v -288 -192 0
v -288 -144 0
v -240 -144 0
v -288 -192 0
v -336 -192 0
v -336 -144 0
v -288 -144 0
v -336 -192 0
v -384 -192 0
v -384 -144 0
v -336 -144 0
v -384 -192 0
v -432 -192 0
v -432 -144 0
v -384 -144 0
v -432 -192 0
v -480 -192 0
v -480 -144 0
v -432 -144 0
v -480 -192 0
v -528 -192 0
v -528 -144 0
v -480 -144 0
v -528 -192 0
v -576 -192 0
v -576 -144 0
v -528 -144 0
v -576 -192 0
v -624 -192 0
v -624 -144 0
v -576 -144 0
v -624 -192 0
v -672 -192 0
v -672 -144 0
v -624 -144 0
v -672 -192 0
v -720 -192 0
v -720 -144 0
v -672 -144 0
v -720 -192 0
v -768 -192 0
v -768 -144 0
v -720 -144 0
v -768 -192 0
v -816 -192 0
v -816 -144 0
v -768 -144 0
v 0 -240 0
v -48 -240 0
v -48 -192 0
v 0 -192 0
v -48 -240 0
v -96 -240 0
v -96 -192 0
v -48 -192 0
v -96 -240 0
v -144 -240 0
v -144 -192 0
v -96 -192 0
v -144 -240 0
v -192 -240 0
v -192 -192 0
v -144 -192 0
v -192 -240 0
v -240 -240 0
v -240 -192 0
v -192 -192 0
v -240 -240 0
v -288 -240 0
v -288 -192 0
v -240 -192 0
v -288 -240 0
v -336 -240 0
v -336 -192 0
v -288 -192 0
v -336 -240 0
v -384 -240 0
v -384 -192 0
v -336 -192 0
v -384 -240 0
v -432 -240 0
v -432 -192 0
v -384 -192 0
v -432 -240 0
v -480 -240 0
v -480 -192 0
v -432 -192 0
v -480 -240 0
v -528 -240 0
v -528 -192 0
v -480 -192 0
v -528 -240 0
v -576 -240 0
v -576 -192 0
v -528 -192 0
v -576 -240 0
v -624 -240 0
v -624 -192 0
v -576 -192 0
v -624 -240 0
v -672 -240 0
v -672 -192 0
v -624 -192 0
v -672 -240 0
v -720 -240 0
v -720 -192 0
v -672 -192 0
v -720 -240 0
v -768 -240 0
v -768 -192 0
v -720 -192 0
v -768 -240 0
v -816 -240 0
v -816 -192 0
v -768 -192 0
v 0 -288 0
v -48 -288 0
v -48 -240 0
v 0 -240 0
v -48 -288 0
v -96 -288 0
v -96 -240 0
v -48 -240 0
v -96 -288 0
v -144 -288 0
v -144 -240 0
v -96 -240 0
v -144 -288 0
v -192 -288 0
v -192 -240 0
v -144 -240 0
v -192 -288 0
v -240 -288 0
v -240 -240 0
v -192 -240 0
v -240 -288 0
v -288 -288 0
v -288 -240 0
v -240 -240 0
v -288 -288 0
v -336 -288 0
v -336 -240 0
v -288 -240 0
v -336 -288 0
v -384 -288 0
v -384 -240 0
v -336 -240 0
v -384 -288 0
v -432 -288 0
v -432 -240 0
v -384 -240 0
v -432 -288 0
v -480 -288 0
v -480 -240 0
v -432 -240 0
v -480 -288 0
v -528 -288 0
v -528 -240 0
v -480 -240 0
v -528 -288 0
v -576 -288 0
v -576 -240 0
v -528 -240 0
v -576 -288 0
v -624 -288 0
v -624 -240 0
v -576 -240 0
v -624 -288 0
v -672 -288 0
v -672 -240 0
v -624 -240 0
v -672 -288 0
v -720 -288 0
v -720 -240 0
v -672 -240 0
v -720 -288 0
v -768 -288 0
v -768 -240 0
v -720 -240 0
v -768 -288 0
v -816 -288 0
v -816 -240 0
v -768 -240 0
v 0 -336 0
v -48 -336 0
v -48 -288 0
v 0 -288 0
v -48 -336 0
v -96 -336 0
v -96 -288 0
v -48 -288 0
v -96 -336 0
v -144 -336 0
v -144 -288 0
v -96 -288 0
v -144 -336 0
v -192 -336 0
v -192 -288 0
v -144 -288 0
v -192 -336 0
v -240 -336 0
v -240 -288 0
v -192 -288 0
v -240 -336 0
v -288 -336 0
v -288 -288 0
v -240 -288 0
v -288 -336 0
v -336 -336 0
v -336 -288 0
v -288 -288 0
v -336 -336 0
v -384 -336 0
v -384 -288 0
v -336 -288 0
v -384 -336 0
v -432 -336 0
v -432 -288 0
v -384 -288 0
v -432 -336 0
v -480 -336 0
v -480 -288 0
v -432 -288 0
v -480 -336 0
v -528 -336 0
v -528 -288 0
v -480 -288 0
v -528 -336 0
v -576 -336 0
v -576 -288 0
v -528 -288 0
v -576 -336 0
v -624 -336 0
v -624 -288 0
v -576 -288 0
v -624 -336 0
v -672 -336 0
v -672 -288 0
v -624 -288 0
v -672 -336 0
v -720 -336 0
v -720 -288 0
v -672 -288 0
v -720 -336 0
v -768 -336 0
v -768 -288 0
v -720 -288 0
v -768 -336 0
v -816 -336 0
v -816 -288 0
v -768 -288 0

# Texture cooridinates (Count = 45)
vt 0.244898 0.875
vt 0.3673469 0.875
vt 0.3673469 0.9375
vt 0.244898 0.9375
vt 0.4897959 0.875
vt 0.4897959 0.9375
vt 0 0.875
vt 0.122449 0.875
vt 0.122449 0.9375
vt 0 0.9375
vt 0.244898 0.8125
vt 0.3673469 0.8125
vt 0.4897959 0.8125
vt 0 0.8125
vt 0.122449 0.8125
vt 0.244898 0.75
vt 0.3673469 0.75
vt 0.4897959 0.75
vt 0 0.75
vt 0.122449 0.75
vt 0.3673469 1
vt 0.244898 1
vt 0.4897959 1
vt 0.122449 1
vt 0 1
vt 0 0.6875
vt 0.122449 0.6875
vt 0.244898 0.6875
vt 0.3673469 0.6875
vt 0.4897959 0.6875
vt 0 0.625
vt 0.122449 0.625
vt 0.244898 0.625
vt 0.3673469 0.625
vt 0.4897959 0.625
vt 0 0.5625
vt 0.122449 0.5625
vt 0.244898 0.5625
vt 0.3673469 0.5625
vt 0.4897959 0.5625
vt 0 0.5
vt 0.122449 0.5
vt 0.244898 0.5
vt 0.3673469 0.5
vt 0.4897959 0.5

# Normal
vn 0 0 -1

# Mesh description
g Test-B_mesh_0003

# Faces
f 1/1/1 2/2/1 3/3/1 4/4/1
f 5/2/1 6/5/1 7/6/1 8/3/1
f 9/7/1 10/8/1 11/9/1 12/10/1
f 13/8/1 14/1/1 15/4/1 16/9/1
f 17/1/1 18/2/1 19/3/1 20/4/1
f 21/2/1 22/5/1 23/6/1 24/3/1
f 25/7/1 26/8/1 27/9/1 28/10/1
f 29/8/1 30/1/1 31/4/1 32/9/1
f 33/1/1 34/2/1 35/3/1 36/4/1
f 37/2/1 38/5/1 39/6/1 40/3/1
f 41/7/1 42/8/1 43/9/1 44/10/1
f 45/7/1 46/8/1 47/9/1 48/10/1
f 49/7/1 50/8/1 51/9/1 52/10/1
f 53/7/1 54/8/1 55/9/1 56/10/1
f 57/8/1 58/1/1 59/4/1 60/9/1
f 61/1/1 62/2/1 63/3/1 64/4/1
f 65/2/1 66/5/1 67/6/1 68/3/1
f 69/11/1 70/12/1 71/2/1 72/1/1
f 73/12/1 74/13/1 75/5/1 76/2/1
f 77/14/1 78/15/1 79/8/1 80/7/1
f 81/15/1 82/11/1 83/1/1 84/8/1
f 85/11/1 86/12/1 87/2/1 88/1/1
f 89/12/1 90/13/1 91/5/1 92/2/1
f 93/14/1 94/15/1 95/8/1 96/7/1
f 97/15/1 98/11/1 99/1/1 100/8/1
f 101/11/1 102/12/1 103/2/1 104/1/1
f 105/12/1 106/13/1 107/5/1 108/2/1
f 109/14/1 110/15/1 111/8/1 112/7/1
f 113/14/1 114/15/1 115/8/1 116/7/1
f 117/14/1 118/15/1 119/8/1 120/7/1
f 121/14/1 122/15/1 123/8/1 124/7/1
f 125/15/1 126/11/1 127/1/1 128/8/1
f 129/11/1 130/12/1 131/2/1 132/1/1
f 133/12/1 134/13/1 135/5/1 136/2/1
f 137/16/1 138/17/1 139/12/1 140/11/1
f 141/17/1 142/18/1 143/13/1 144/12/1
f 145/19/1 146/20/1 147/15/1 148/14/1
f 149/20/1 150/16/1 151/11/1 152/15/1
f 153/16/1 154/17/1 155/12/1 156/11/1
f 157/17/1 158/18/1 159/13/1 160/12/1
f 161/19/1 162/20/1 163/15/1 164/14/1
f 165/20/1 166/16/1 167/11/1 168/15/1
f 169/16/1 170/17/1 171/12/1 172/11/1
f 173/17/1 174/18/1 175/13/1 176/12/1
f 177/19/1 178/20/1 179/15/1 180/14/1
f 181/19/1 182/20/1 183/15/1 184/14/1
f 185/19/1 186/20/1 187/15/1 188/14/1
f 189/19/1 190/20/1 191/15/1 192/14/1
f 193/20/1 194/16/1 195/11/1 196/15/1
f 197/16/1 198/17/1 199/12/1 200/11/1
f 201/17/1 202/18/1 203/13/1 204/12/1
f 205/4/1 206/3/1 207/21/1 208/22/1
f 209/3/1 210/6/1 211/23/1 212/21/1
f 213/10/1 214/9/1 215/24/1 216/25/1
f 217/9/1 218/4/1 219/22/1 220/24/1
f 221/4/1 222/3/1 223/21/1 224/22/1
f 225/3/1 226/6/1 227/23/1 228/21/1
f 229/26/1 230/27/1 231/20/1 232/19/1
f 233/27/1 234/28/1 235/16/1 236/20/1
f 237/28/1 238/29/1 239/17/1 240/16/1
f 241/29/1 242/30/1 243/18/1 244/17/1
f 245/10/1 246/9/1 247/24/1 248/25/1
f 249/9/1 250/4/1 251/22/1 252/24/1
f 253/4/1 254/3/1 255/21/1 256/22/1
f 257/3/1 258/6/1 259/23/1 260/21/1
f 261/10/1 262/9/1 263/24/1 264/25/1
f 265/9/1 266/4/1 267/22/1 268/24/1
f 269/4/1 270/3/1 271/21/1 272/22/1
f 273/1/1 274/2/1 275/3/1 276/4/1
f 277/2/1 278/5/1 279/6/1 280/3/1
f 281/7/1 282/8/1 283/9/1 284/10/1
f 285/8/1 286/1/1 287/4/1 288/9/1
f 289/1/1 290/2/1 291/3/1 292/4/1
f 293/2/1 294/5/1 295/6/1 296/3/1
f 297/31/1 298/32/1 299/27/1 300/26/1
f 301/32/1 302/33/1 303/28/1 304/27/1
f 305/33/1 306/34/1 307/29/1 308/28/1
f 309/34/1 310/35/1 311/30/1 312/29/1
f 313/7/1 314/8/1 315/9/1 316/10/1
f 317/8/1 318/1/1 319/4/1 320/9/1
f 321/1/1 322/2/1 323/3/1 324/4/1
f 325/2/1 326/5/1 327/6/1 328/3/1
f 329/7/1 330/8/1 331/9/1 332/10/1
f 333/8/1 334/1/1 335/4/1 336/9/1
f 337/1/1 338/2/1 339/3/1 340/4/1
f 341/11/1 342/12/1 343/2/1 344/1/1
f 345/12/1 346/13/1 347/5/1 348/2/1
f 349/14/1 350/15/1 351/8/1 352/7/1
f 353/15/1 354/11/1 355/1/1 356/8/1
f 357/11/1 358/12/1 359/2/1 360/1/1
f 361/12/1 362/13/1 363/5/1 364/2/1
f 365/36/1 366/37/1 367/32/1 368/31/1
f 369/37/1 370/38/1 371/33/1 372/32/1
f 373/38/1 374/39/1 375/34/1 376/33/1
f 377/39/1 378/40/1 379/35/1 380/34/1
f 381/14/1 382/15/1 383/8/1 384/7/1
f 385/15/1 386/11/1 387/1/1 388/8/1
f 389/11/1 390/12/1 391/2/1 392/1/1
f 393/12/1 394/13/1 395/5/1 396/2/1
f 397/14/1 398/15/1 399/8/1 400/7/1
f 401/15/1 402/11/1 403/1/1 404/8/1
f 405/11/1 406/12/1 407/2/1 408/1/1
f 409/16/1 410/17/1 411/12/1 412/11/1
f 413/17/1 414/18/1 415/13/1 416/12/1
f 417/19/1 418/20/1 419/15/1 420/14/1
f 421/20/1 422/16/1 423/11/1 424/15/1
f 425/16/1 426/17/1 427/12/1 428/11/1
f 429/17/1 430/18/1 431/13/1 432/12/1
f 433/41/1 434/42/1 435/37/1 436/36/1
f 437/42/1 438/43/1 439/38/1 440/37/1
f 441/43/1 442/44/1 443/39/1 444/38/1
f 445/44/1 446/45/1 447/40/1 448/39/1
f 449/19/1 450/20/1 451/15/1 452/14/1
f 453/20/1 454/16/1 455/11/1 456/15/1
f 457/16/1 458/17/1 459/12/1 460/11/1
f 461/17/1 462/18/1 463/13/1 464/12/1
f 465/19/1 466/20/1 467/15/1 468/14/1
f 469/20/1 470/16/1 471/11/1 472/15/1
f 473/16/1 474/17/1 475/12/1 476/11/1

