# Tiled2Unity generated file. Do not modify by hand.
# Wavefront file for 'Test-B_mesh_0001.obj'

# Vertices (Count = 884)
v 0 -48 0
v -48 -48 0
v -48 0 0
v 0 0 0
v -48 -48 0
v -96 -48 0
v -96 0 0
v -48 0 0
v -96 -48 0
v -144 -48 0
v -144 0 0
v -96 0 0
v -144 -48 0
v -192 -48 0
v -192 0 0
v -144 0 0
v -192 -48 0
v -240 -48 0
v -240 0 0
v -192 0 0
v -240 -48 0
v -288 -48 0
v -288 0 0
v -240 0 0
v -288 -48 0
v -336 -48 0
v -336 0 0
v -288 0 0
v -336 -48 0
v -384 -48 0
v -384 0 0
v -336 0 0
v -384 -48 0
v -432 -48 0
v -432 0 0
v -384 0 0
v -432 -48 0
v -480 -48 0
v -480 0 0
v -432 0 0
v -480 -48 0
v -528 -48 0
v -528 0 0
v -480 0 0
v -528 -48 0
v -576 -48 0
v -576 0 0
v -528 0 0
v -576 -48 0
v -624 -48 0
v -624 0 0
v -576 0 0
v -624 -48 0
v -672 -48 0
v -672 0 0
v -624 0 0
v -672 -48 0
v -720 -48 0
v -720 0 0
v -672 0 0
v -720 -48 0
v -768 -48 0
v -768 0 0
v -720 0 0
v -768 -48 0
v -816 -48 0
v -816 0 0
v -768 0 0
v 0 -96 0
v -48 -96 0
v -48 -48 0
v 0 -48 0
v -48 -96 0
v -96 -96 0
v -96 -48 0
v -48 -48 0
v -96 -96 0
v -144 -96 0
v -144 -48 0
v -96 -48 0
v -144 -96 0
v -192 -96 0
v -192 -48 0
v -144 -48 0
v -192 -96 0
v -240 -96 0
v -240 -48 0
v -192 -48 0
v -240 -96 0
v -288 -96 0
v -288 -48 0
v -240 -48 0
v -288 -96 0
v -336 -96 0
v -336 -48 0
v -288 -48 0
v -336 -96 0
v -384 -96 0
v -384 -48 0
v -336 -48 0
v -384 -96 0
v -432 -96 0
v -432 -48 0
v -384 -48 0
v -432 -96 0
v -480 -96 0
v -480 -48 0
v -432 -48 0
v -480 -96 0
v -528 -96 0
v -528 -48 0
v -480 -48 0
v -528 -96 0
v -576 -96 0
v -576 -48 0
v -528 -48 0
v -576 -96 0
v -624 -96 0
v -624 -48 0
v -576 -48 0
v -624 -96 0
v -672 -96 0
v -672 -48 0
v -624 -48 0
v -672 -96 0
v -720 -96 0
v -720 -48 0
v -672 -48 0
v -720 -96 0
v -768 -96 0
v -768 -48 0
v -720 -48 0
v -768 -96 0
v -816 -96 0
v -816 -48 0
v -768 -48 0
v 0 -144 0
v -48 -144 0
v -48 -96 0
v 0 -96 0
v -48 -144 0
v -96 -144 0
v -96 -96 0
v -48 -96 0
v -96 -144 0
v -144 -144 0
v -144 -96 0
v -96 -96 0
v -144 -144 0
v -192 -144 0
v -192 -96 0
v -144 -96 0
v -192 -144 0
v -240 -144 0
v -240 -96 0
v -192 -96 0
v -240 -144 0
v -288 -144 0
v -288 -96 0
v -240 -96 0
v -288 -144 0
v -336 -144 0
v -336 -96 0
v -288 -96 0
v -336 -144 0
v -384 -144 0
v -384 -96 0
v -336 -96 0
v -384 -144 0
v -432 -144 0
v -432 -96 0
v -384 -96 0
v -432 -144 0
v -480 -144 0
v -480 -96 0
v -432 -96 0
v -480 -144 0
v -528 -144 0
v -528 -96 0
v -480 -96 0
v -528 -144 0
v -576 -144 0
v -576 -96 0
v -528 -96 0
v -576 -144 0
v -624 -144 0
v -624 -96 0
v -576 -96 0
v -624 -144 0
v -672 -144 0
v -672 -96 0
v -624 -96 0
v -672 -144 0
v -720 -144 0
v -720 -96 0
v -672 -96 0
v -720 -144 0
v -768 -144 0
v -768 -96 0
v -720 -96 0
v -768 -144 0
v -816 -144 0
v -816 -96 0
v -768 -96 0
v 0 -192 0
v -48 -192 0
v -48 -144 0
v 0 -144 0
v -48 -192 0
v -96 -192 0
v -96 -144 0
v -48 -144 0
v -96 -192 0
v -144 -192 0
v -144 -144 0
v -96 -144 0
v -144 -192 0
v -192 -192 0
v -192 -144 0
v -144 -144 0
v -192 -192 0
v -240 -192 0
v -240 -144 0
v -192 -144 0
v -240 -192 0
v -288 -192 0
v -288 -144 0
v -240 -144 0
v -288 -192 0
v -336 -192 0
v -336 -144 0
v -288 -144 0
v -336 -192 0
v -384 -192 0
v -384 -144 0
v -336 -144 0
v -384 -192 0
v -432 -192 0
v -432 -144 0
v -384 -144 0
v -432 -192 0
v -480 -192 0
v -480 -144 0
v -432 -144 0
v -480 -192 0
v -528 -192 0
v -528 -144 0
v -480 -144 0
v -528 -192 0
v -576 -192 0
v -576 -144 0
v -528 -144 0
v -576 -192 0
v -624 -192 0
v -624 -144 0
v -576 -144 0
v -624 -192 0
v -672 -192 0
v -672 -144 0
v -624 -144 0
v -672 -192 0
v -720 -192 0
v -720 -144 0
v -672 -144 0
v -720 -192 0
v -768 -192 0
v -768 -144 0
v -720 -144 0
v -768 -192 0
v -816 -192 0
v -816 -144 0
v -768 -144 0
v 0 -240 0
v -48 -240 0
v -48 -192 0
v 0 -192 0
v -48 -240 0
v -96 -240 0
v -96 -192 0
v -48 -192 0
v -96 -240 0
v -144 -240 0
v -144 -192 0
v -96 -192 0
v -144 -240 0
v -192 -240 0
v -192 -192 0
v -144 -192 0
v -192 -240 0
v -240 -240 0
v -240 -192 0
v -192 -192 0
v -240 -240 0
v -288 -240 0
v -288 -192 0
v -240 -192 0
v -288 -240 0
v -336 -240 0
v -336 -192 0
v -288 -192 0
v -336 -240 0
v -384 -240 0
v -384 -192 0
v -336 -192 0
v -384 -240 0
v -432 -240 0
v -432 -192 0
v -384 -192 0
v -432 -240 0
v -480 -240 0
v -480 -192 0
v -432 -192 0
v -480 -240 0
v -528 -240 0
v -528 -192 0
v -480 -192 0
v -528 -240 0
v -576 -240 0
v -576 -192 0
v -528 -192 0
v -576 -240 0
v -624 -240 0
v -624 -192 0
v -576 -192 0
v -624 -240 0
v -672 -240 0
v -672 -192 0
v -624 -192 0
v -672 -240 0
v -720 -240 0
v -720 -192 0
v -672 -192 0
v -720 -240 0
v -768 -240 0
v -768 -192 0
v -720 -192 0
v -768 -240 0
v -816 -240 0
v -816 -192 0
v -768 -192 0
v 0 -288 0
v -48 -288 0
v -48 -240 0
v 0 -240 0
v -48 -288 0
v -96 -288 0
v -96 -240 0
v -48 -240 0
v -96 -288 0
v -144 -288 0
v -144 -240 0
v -96 -240 0
v -144 -288 0
v -192 -288 0
v -192 -240 0
v -144 -240 0
v -192 -288 0
v -240 -288 0
v -240 -240 0
v -192 -240 0
v -240 -288 0
v -288 -288 0
v -288 -240 0
v -240 -240 0
v -288 -288 0
v -336 -288 0
v -336 -240 0
v -288 -240 0
v -336 -288 0
v -384 -288 0
v -384 -240 0
v -336 -240 0
v -384 -288 0
v -432 -288 0
v -432 -240 0
v -384 -240 0
v -432 -288 0
v -480 -288 0
v -480 -240 0
v -432 -240 0
v -480 -288 0
v -528 -288 0
v -528 -240 0
v -480 -240 0
v -528 -288 0
v -576 -288 0
v -576 -240 0
v -528 -240 0
v -576 -288 0
v -624 -288 0
v -624 -240 0
v -576 -240 0
v -624 -288 0
v -672 -288 0
v -672 -240 0
v -624 -240 0
v -672 -288 0
v -720 -288 0
v -720 -240 0
v -672 -240 0
v -720 -288 0
v -768 -288 0
v -768 -240 0
v -720 -240 0
v -768 -288 0
v -816 -288 0
v -816 -240 0
v -768 -240 0
v 0 -336 0
v -48 -336 0
v -48 -288 0
v 0 -288 0
v -48 -336 0
v -96 -336 0
v -96 -288 0
v -48 -288 0
v -96 -336 0
v -144 -336 0
v -144 -288 0
v -96 -288 0
v -144 -336 0
v -192 -336 0
v -192 -288 0
v -144 -288 0
v -192 -336 0
v -240 -336 0
v -240 -288 0
v -192 -288 0
v -240 -336 0
v -288 -336 0
v -288 -288 0
v -240 -288 0
v -288 -336 0
v -336 -336 0
v -336 -288 0
v -288 -288 0
v -336 -336 0
v -384 -336 0
v -384 -288 0
v -336 -288 0
v -384 -336 0
v -432 -336 0
v -432 -288 0
v -384 -288 0
v -432 -336 0
v -480 -336 0
v -480 -288 0
v -432 -288 0
v -480 -336 0
v -528 -336 0
v -528 -288 0
v -480 -288 0
v -528 -336 0
v -576 -336 0
v -576 -288 0
v -528 -288 0
v -576 -336 0
v -624 -336 0
v -624 -288 0
v -576 -288 0
v -624 -336 0
v -672 -336 0
v -672 -288 0
v -624 -288 0
v -672 -336 0
v -720 -336 0
v -720 -288 0
v -672 -288 0
v -720 -336 0
v -768 -336 0
v -768 -288 0
v -720 -288 0
v -768 -336 0
v -816 -336 0
v -816 -288 0
v -768 -288 0
v 0 -384 0
v -48 -384 0
v -48 -336 0
v 0 -336 0
v -48 -384 0
v -96 -384 0
v -96 -336 0
v -48 -336 0
v -96 -384 0
v -144 -384 0
v -144 -336 0
v -96 -336 0
v -144 -384 0
v -192 -384 0
v -192 -336 0
v -144 -336 0
v -192 -384 0
v -240 -384 0
v -240 -336 0
v -192 -336 0
v -240 -384 0
v -288 -384 0
v -288 -336 0
v -240 -336 0
v -288 -384 0
v -336 -384 0
v -336 -336 0
v -288 -336 0
v -336 -384 0
v -384 -384 0
v -384 -336 0
v -336 -336 0
v -384 -384 0
v -432 -384 0
v -432 -336 0
v -384 -336 0
v -432 -384 0
v -480 -384 0
v -480 -336 0
v -432 -336 0
v -480 -384 0
v -528 -384 0
v -528 -336 0
v -480 -336 0
v -528 -384 0
v -576 -384 0
v -576 -336 0
v -528 -336 0
v -576 -384 0
v -624 -384 0
v -624 -336 0
v -576 -336 0
v -624 -384 0
v -672 -384 0
v -672 -336 0
v -624 -336 0
v -672 -384 0
v -720 -384 0
v -720 -336 0
v -672 -336 0
v -720 -384 0
v -768 -384 0
v -768 -336 0
v -720 -336 0
v -768 -384 0
v -816 -384 0
v -816 -336 0
v -768 -336 0
v 0 -432 0
v -48 -432 0
v -48 -384 0
v 0 -384 0
v -48 -432 0
v -96 -432 0
v -96 -384 0
v -48 -384 0
v -96 -432 0
v -144 -432 0
v -144 -384 0
v -96 -384 0
v -144 -432 0
v -192 -432 0
v -192 -384 0
v -144 -384 0
v -192 -432 0
v -240 -432 0
v -240 -384 0
v -192 -384 0
v -240 -432 0
v -288 -432 0
v -288 -384 0
v -240 -384 0
v -288 -432 0
v -336 -432 0
v -336 -384 0
v -288 -384 0
v -336 -432 0
v -384 -432 0
v -384 -384 0
v -336 -384 0
v -384 -432 0
v -432 -432 0
v -432 -384 0
v -384 -384 0
v -432 -432 0
v -480 -432 0
v -480 -384 0
v -432 -384 0
v -480 -432 0
v -528 -432 0
v -528 -384 0
v -480 -384 0
v -528 -432 0
v -576 -432 0
v -576 -384 0
v -528 -384 0
v -576 -432 0
v -624 -432 0
v -624 -384 0
v -576 -384 0
v -624 -432 0
v -672 -432 0
v -672 -384 0
v -624 -384 0
v -672 -432 0
v -720 -432 0
v -720 -384 0
v -672 -384 0
v -720 -432 0
v -768 -432 0
v -768 -384 0
v -720 -384 0
v -768 -432 0
v -816 -432 0
v -816 -384 0
v -768 -384 0
v 0 -480 0
v -48 -480 0
v -48 -432 0
v 0 -432 0
v -48 -480 0
v -96 -480 0
v -96 -432 0
v -48 -432 0
v -96 -480 0
v -144 -480 0
v -144 -432 0
v -96 -432 0
v -144 -480 0
v -192 -480 0
v -192 -432 0
v -144 -432 0
v -192 -480 0
v -240 -480 0
v -240 -432 0
v -192 -432 0
v -240 -480 0
v -288 -480 0
v -288 -432 0
v -240 -432 0
v -288 -480 0
v -336 -480 0
v -336 -432 0
v -288 -432 0
v -336 -480 0
v -384 -480 0
v -384 -432 0
v -336 -432 0
v -384 -480 0
v -432 -480 0
v -432 -432 0
v -384 -432 0
v -432 -480 0
v -480 -480 0
v -480 -432 0
v -432 -432 0
v -480 -480 0
v -528 -480 0
v -528 -432 0
v -480 -432 0
v -528 -480 0
v -576 -480 0
v -576 -432 0
v -528 -432 0
v -576 -480 0
v -624 -480 0
v -624 -432 0
v -576 -432 0
v -624 -480 0
v -672 -480 0
v -672 -432 0
v -624 -432 0
v -672 -480 0
v -720 -480 0
v -720 -432 0
v -672 -432 0
v -720 -480 0
v -768 -480 0
v -768 -432 0
v -720 -432 0
v -768 -480 0
v -816 -480 0
v -816 -432 0
v -768 -432 0
v 0 -528 0
v -48 -528 0
v -48 -480 0
v 0 -480 0
v -48 -528 0
v -96 -528 0
v -96 -480 0
v -48 -480 0
v -96 -528 0
v -144 -528 0
v -144 -480 0
v -96 -480 0
v -144 -528 0
v -192 -528 0
v -192 -480 0
v -144 -480 0
v -192 -528 0
v -240 -528 0
v -240 -480 0
v -192 -480 0
v -240 -528 0
v -288 -528 0
v -288 -480 0
v -240 -480 0
v -288 -528 0
v -336 -528 0
v -336 -480 0
v -288 -480 0
v -336 -528 0
v -384 -528 0
v -384 -480 0
v -336 -480 0
v -384 -528 0
v -432 -528 0
v -432 -480 0
v -384 -480 0
v -432 -528 0
v -480 -528 0
v -480 -480 0
v -432 -480 0
v -480 -528 0
v -528 -528 0
v -528 -480 0
v -480 -480 0
v -528 -528 0
v -576 -528 0
v -576 -480 0
v -528 -480 0
v -576 -528 0
v -624 -528 0
v -624 -480 0
v -576 -480 0
v -624 -528 0
v -672 -528 0
v -672 -480 0
v -624 -480 0
v -672 -528 0
v -720 -528 0
v -720 -480 0
v -672 -480 0
v -720 -528 0
v -768 -528 0
v -768 -480 0
v -720 -480 0
v -768 -528 0
v -816 -528 0
v -816 -480 0
v -768 -480 0
v 0 -576 0
v -48 -576 0
v -48 -528 0
v 0 -528 0
v -48 -576 0
v -96 -576 0
v -96 -528 0
v -48 -528 0
v -96 -576 0
v -144 -576 0
v -144 -528 0
v -96 -528 0
v -144 -576 0
v -192 -576 0
v -192 -528 0
v -144 -528 0
v -192 -576 0
v -240 -576 0
v -240 -528 0
v -192 -528 0
v -240 -576 0
v -288 -576 0
v -288 -528 0
v -240 -528 0
v -288 -576 0
v -336 -576 0
v -336 -528 0
v -288 -528 0
v -336 -576 0
v -384 -576 0
v -384 -528 0
v -336 -528 0
v -384 -576 0
v -432 -576 0
v -432 -528 0
v -384 -528 0
v -432 -576 0
v -480 -576 0
v -480 -528 0
v -432 -528 0
v -480 -576 0
v -528 -576 0
v -528 -528 0
v -480 -528 0
v -528 -576 0
v -576 -576 0
v -576 -528 0
v -528 -528 0
v -576 -576 0
v -624 -576 0
v -624 -528 0
v -576 -528 0
v -624 -576 0
v -672 -576 0
v -672 -528 0
v -624 -528 0
v -672 -576 0
v -720 -576 0
v -720 -528 0
v -672 -528 0
v -720 -576 0
v -768 -576 0
v -768 -528 0
v -720 -528 0
v -768 -576 0
v -816 -576 0
v -816 -528 0
v -768 -528 0
v 0 -624 0
v -48 -624 0
v -48 -576 0
v 0 -576 0
v -48 -624 0
v -96 -624 0
v -96 -576 0
v -48 -576 0
v -96 -624 0
v -144 -624 0
v -144 -576 0
v -96 -576 0
v -144 -624 0
v -192 -624 0
v -192 -576 0
v -144 -576 0
v -192 -624 0
v -240 -624 0
v -240 -576 0
v -192 -576 0
v -240 -624 0
v -288 -624 0
v -288 -576 0
v -240 -576 0
v -288 -624 0
v -336 -624 0
v -336 -576 0
v -288 -576 0
v -336 -624 0
v -384 -624 0
v -384 -576 0
v -336 -576 0
v -384 -624 0
v -432 -624 0
v -432 -576 0
v -384 -576 0
v -432 -624 0
v -480 -624 0
v -480 -576 0
v -432 -576 0
v -480 -624 0
v -528 -624 0
v -528 -576 0
v -480 -576 0
v -528 -624 0
v -576 -624 0
v -576 -576 0
v -528 -576 0
v -576 -624 0
v -624 -624 0
v -624 -576 0
v -576 -576 0
v -624 -624 0
v -672 -624 0
v -672 -576 0
v -624 -576 0
v -672 -624 0
v -720 -624 0
v -720 -576 0
v -672 -576 0
v -720 -624 0
v -768 -624 0
v -768 -576 0
v -720 -576 0
v -768 -624 0
v -816 -624 0
v -816 -576 0
v -768 -576 0

# Texture cooridinates (Count = 21)
vt 0.125 0.625
vt 0.25 0.625
vt 0.25 0.6875
vt 0.125 0.6875
vt 0 0.625
vt 0 0.6875
vt 0.125 0.5625
vt 0.25 0.5625
vt 0 0.5625
vt 0.25 0.75
vt 0.125 0.75
vt 0 0.75
vt 0.375 0.75
vt 0.5 0.75
vt 0.5 0.8125
vt 0.375 0.8125
vt 0.25 0.8125
vt 0.375 0.875
vt 0.25 0.875
vt 0.125 0.8125
vt 0.5 0.875

# Normal
vn 0 0 -1

# Mesh description
g Test-B_mesh_0001

# Faces
f 1/1/1 2/2/1 3/3/1 4/4/1
f 5/5/1 6/1/1 7/4/1 8/6/1
f 9/1/1 10/2/1 11/3/1 12/4/1
f 13/5/1 14/1/1 15/4/1 16/6/1
f 17/1/1 18/2/1 19/3/1 20/4/1
f 21/5/1 22/1/1 23/4/1 24/6/1
f 25/1/1 26/2/1 27/3/1 28/4/1
f 29/5/1 30/1/1 31/4/1 32/6/1
f 33/1/1 34/2/1 35/3/1 36/4/1
f 37/5/1 38/1/1 39/4/1 40/6/1
f 41/1/1 42/2/1 43/3/1 44/4/1
f 45/5/1 46/1/1 47/4/1 48/6/1
f 49/1/1 50/2/1 51/3/1 52/4/1
f 53/5/1 54/1/1 55/4/1 56/6/1
f 57/1/1 58/2/1 59/3/1 60/4/1
f 61/5/1 62/1/1 63/4/1 64/6/1
f 65/1/1 66/2/1 67/3/1 68/4/1
f 69/7/1 70/8/1 71/2/1 72/1/1
f 73/9/1 74/7/1 75/1/1 76/5/1
f 77/7/1 78/8/1 79/2/1 80/1/1
f 81/9/1 82/7/1 83/1/1 84/5/1
f 85/7/1 86/8/1 87/2/1 88/1/1
f 89/9/1 90/7/1 91/1/1 92/5/1
f 93/7/1 94/8/1 95/2/1 96/1/1
f 97/9/1 98/7/1 99/1/1 100/5/1
f 101/7/1 102/8/1 103/2/1 104/1/1
f 105/9/1 106/7/1 107/1/1 108/5/1
f 109/7/1 110/8/1 111/2/1 112/1/1
f 113/9/1 114/7/1 115/1/1 116/5/1
f 117/7/1 118/8/1 119/2/1 120/1/1
f 121/9/1 122/7/1 123/1/1 124/5/1
f 125/7/1 126/8/1 127/2/1 128/1/1
f 129/9/1 130/7/1 131/1/1 132/5/1
f 133/7/1 134/8/1 135/2/1 136/1/1
f 137/4/1 138/3/1 139/10/1 140/11/1
f 141/6/1 142/4/1 143/11/1 144/12/1
f 145/4/1 146/3/1 147/10/1 148/11/1
f 149/6/1 150/4/1 151/11/1 152/12/1
f 153/4/1 154/3/1 155/10/1 156/11/1
f 157/6/1 158/4/1 159/11/1 160/12/1
f 161/4/1 162/3/1 163/10/1 164/11/1
f 165/6/1 166/4/1 167/11/1 168/12/1
f 169/4/1 170/3/1 171/10/1 172/11/1
f 173/6/1 174/4/1 175/11/1 176/12/1
f 177/4/1 178/3/1 179/10/1 180/11/1
f 181/6/1 182/4/1 183/11/1 184/12/1
f 185/4/1 186/3/1 187/10/1 188/11/1
f 189/6/1 190/4/1 191/11/1 192/12/1
f 193/4/1 194/3/1 195/10/1 196/11/1
f 197/6/1 198/4/1 199/11/1 200/12/1
f 201/4/1 202/3/1 203/10/1 204/11/1
f 205/1/1 206/2/1 207/3/1 208/4/1
f 209/5/1 210/1/1 211/4/1 212/6/1
f 213/1/1 214/2/1 215/3/1 216/4/1
f 217/5/1 218/1/1 219/4/1 220/6/1
f 221/1/1 222/2/1 223/3/1 224/4/1
f 225/5/1 226/1/1 227/4/1 228/6/1
f 229/1/1 230/2/1 231/3/1 232/4/1
f 233/5/1 234/1/1 235/4/1 236/6/1
f 237/1/1 238/2/1 239/3/1 240/4/1
f 241/5/1 242/1/1 243/4/1 244/6/1
f 245/1/1 246/2/1 247/3/1 248/4/1
f 249/5/1 250/1/1 251/4/1 252/6/1
f 253/1/1 254/2/1 255/3/1 256/4/1
f 257/5/1 258/1/1 259/4/1 260/6/1
f 261/1/1 262/2/1 263/3/1 264/4/1
f 265/5/1 266/1/1 267/4/1 268/6/1
f 269/1/1 270/2/1 271/3/1 272/4/1
f 273/7/1 274/8/1 275/2/1 276/1/1
f 277/9/1 278/7/1 279/1/1 280/5/1
f 281/7/1 282/8/1 283/2/1 284/1/1
f 285/9/1 286/7/1 287/1/1 288/5/1
f 289/7/1 290/8/1 291/2/1 292/1/1
f 293/9/1 294/7/1 295/1/1 296/5/1
f 297/7/1 298/8/1 299/2/1 300/1/1
f 301/9/1 302/7/1 303/1/1 304/5/1
f 305/7/1 306/8/1 307/2/1 308/1/1
f 309/9/1 310/7/1 311/1/1 312/5/1
f 313/7/1 314/8/1 315/2/1 316/1/1
f 317/9/1 318/7/1 319/1/1 320/5/1
f 321/7/1 322/8/1 323/2/1 324/1/1
f 325/9/1 326/7/1 327/1/1 328/5/1
f 329/7/1 330/8/1 331/2/1 332/1/1
f 333/9/1 334/7/1 335/1/1 336/5/1
f 337/7/1 338/8/1 339/2/1 340/1/1
f 341/4/1 342/3/1 343/10/1 344/11/1
f 345/6/1 346/4/1 347/11/1 348/12/1
f 349/4/1 350/3/1 351/10/1 352/11/1
f 353/6/1 354/4/1 355/11/1 356/12/1
f 357/4/1 358/3/1 359/10/1 360/11/1
f 361/6/1 362/4/1 363/11/1 364/12/1
f 365/4/1 366/3/1 367/10/1 368/11/1
f 369/6/1 370/4/1 371/11/1 372/12/1
f 373/4/1 374/3/1 375/10/1 376/11/1
f 377/6/1 378/4/1 379/11/1 380/12/1
f 381/4/1 382/3/1 383/10/1 384/11/1
f 385/6/1 386/4/1 387/11/1 388/12/1
f 389/4/1 390/3/1 391/10/1 392/11/1
f 393/6/1 394/4/1 395/11/1 396/12/1
f 397/4/1 398/3/1 399/10/1 400/11/1
f 401/6/1 402/4/1 403/11/1 404/12/1
f 405/4/1 406/3/1 407/10/1 408/11/1
f 409/1/1 410/2/1 411/3/1 412/4/1
f 413/5/1 414/1/1 415/4/1 416/6/1
f 417/1/1 418/2/1 419/3/1 420/4/1
f 421/5/1 422/1/1 423/4/1 424/6/1
f 425/1/1 426/2/1 427/3/1 428/4/1
f 429/5/1 430/1/1 431/4/1 432/6/1
f 433/1/1 434/2/1 435/3/1 436/4/1
f 437/5/1 438/1/1 439/4/1 440/6/1
f 441/1/1 442/2/1 443/3/1 444/4/1
f 445/5/1 446/1/1 447/4/1 448/6/1
f 449/1/1 450/2/1 451/3/1 452/4/1
f 453/5/1 454/1/1 455/4/1 456/6/1
f 457/1/1 458/2/1 459/3/1 460/4/1
f 461/5/1 462/1/1 463/4/1 464/6/1
f 465/1/1 466/2/1 467/3/1 468/4/1
f 469/5/1 470/1/1 471/4/1 472/6/1
f 473/1/1 474/2/1 475/3/1 476/4/1
f 477/13/1 478/14/1 479/15/1 480/16/1
f 481/9/1 482/7/1 483/1/1 484/5/1
f 485/7/1 486/8/1 487/2/1 488/1/1
f 489/9/1 490/7/1 491/1/1 492/5/1
f 493/7/1 494/8/1 495/2/1 496/1/1
f 497/9/1 498/7/1 499/1/1 500/5/1
f 501/7/1 502/8/1 503/2/1 504/1/1
f 505/9/1 506/7/1 507/1/1 508/5/1
f 509/7/1 510/8/1 511/2/1 512/1/1
f 513/9/1 514/7/1 515/1/1 516/5/1
f 517/7/1 518/8/1 519/2/1 520/1/1
f 521/9/1 522/7/1 523/1/1 524/5/1
f 525/7/1 526/8/1 527/2/1 528/1/1
f 529/9/1 530/7/1 531/1/1 532/5/1
f 533/7/1 534/8/1 535/2/1 536/1/1
f 537/9/1 538/7/1 539/1/1 540/5/1
f 541/10/1 542/13/1 543/16/1 544/17/1
f 545/13/1 546/14/1 547/15/1 548/16/1
f 549/6/1 550/4/1 551/11/1 552/12/1
f 553/4/1 554/3/1 555/10/1 556/11/1
f 557/6/1 558/4/1 559/11/1 560/12/1
f 561/4/1 562/3/1 563/10/1 564/11/1
f 565/6/1 566/4/1 567/11/1 568/12/1
f 569/4/1 570/3/1 571/10/1 572/11/1
f 573/6/1 574/4/1 575/11/1 576/12/1
f 577/4/1 578/3/1 579/10/1 580/11/1
f 581/6/1 582/4/1 583/11/1 584/12/1
f 585/4/1 586/3/1 587/10/1 588/11/1
f 589/6/1 590/4/1 591/11/1 592/12/1
f 593/4/1 594/3/1 595/10/1 596/11/1
f 597/6/1 598/4/1 599/11/1 600/12/1
f 601/4/1 602/3/1 603/10/1 604/11/1
f 605/6/1 606/4/1 607/11/1 608/12/1
f 609/10/1 610/13/1 611/16/1 612/17/1
f 613/13/1 614/14/1 615/15/1 616/16/1
f 617/5/1 618/1/1 619/4/1 620/6/1
f 621/1/1 622/2/1 623/3/1 624/4/1
f 625/5/1 626/1/1 627/4/1 628/6/1
f 629/1/1 630/2/1 631/3/1 632/4/1
f 633/5/1 634/1/1 635/4/1 636/6/1
f 637/1/1 638/2/1 639/3/1 640/4/1
f 641/5/1 642/1/1 643/4/1 644/6/1
f 645/1/1 646/2/1 647/3/1 648/4/1
f 649/5/1 650/1/1 651/4/1 652/6/1
f 653/1/1 654/2/1 655/3/1 656/4/1
f 657/5/1 658/1/1 659/4/1 660/6/1
f 661/1/1 662/2/1 663/3/1 664/4/1
f 665/5/1 666/1/1 667/4/1 668/6/1
f 669/1/1 670/2/1 671/3/1 672/4/1
f 673/5/1 674/1/1 675/4/1 676/6/1
f 677/10/1 678/13/1 679/16/1 680/17/1
f 681/13/1 682/14/1 683/15/1 684/16/1
f 685/9/1 686/7/1 687/1/1 688/5/1
f 689/7/1 690/8/1 691/2/1 692/1/1
f 693/9/1 694/7/1 695/1/1 696/5/1
f 697/7/1 698/8/1 699/2/1 700/1/1
f 701/9/1 702/7/1 703/1/1 704/5/1
f 705/7/1 706/8/1 707/2/1 708/1/1
f 709/9/1 710/7/1 711/1/1 712/5/1
f 713/7/1 714/8/1 715/2/1 716/1/1
f 717/9/1 718/7/1 719/1/1 720/5/1
f 721/7/1 722/8/1 723/2/1 724/1/1
f 725/9/1 726/7/1 727/1/1 728/5/1
f 729/7/1 730/8/1 731/2/1 732/1/1
f 733/9/1 734/7/1 735/1/1 736/5/1
f 737/7/1 738/8/1 739/2/1 740/1/1
f 741/9/1 742/7/1 743/1/1 744/5/1
f 745/10/1 746/13/1 747/16/1 748/17/1
f 749/13/1 750/14/1 751/15/1 752/16/1
f 753/6/1 754/4/1 755/11/1 756/12/1
f 757/4/1 758/3/1 759/10/1 760/11/1
f 761/6/1 762/4/1 763/11/1 764/12/1
f 765/4/1 766/3/1 767/10/1 768/11/1
f 769/6/1 770/4/1 771/11/1 772/12/1
f 773/4/1 774/3/1 775/10/1 776/11/1
f 777/6/1 778/4/1 779/11/1 780/12/1
f 781/4/1 782/3/1 783/10/1 784/11/1
f 785/6/1 786/4/1 787/11/1 788/12/1
f 789/4/1 790/3/1 791/10/1 792/11/1
f 793/6/1 794/4/1 795/11/1 796/12/1
f 797/4/1 798/3/1 799/10/1 800/11/1
f 801/6/1 802/4/1 803/11/1 804/12/1
f 805/4/1 806/3/1 807/10/1 808/11/1
f 809/6/1 810/4/1 811/11/1 812/12/1
f 813/10/1 814/13/1 815/16/1 816/17/1
f 817/17/1 818/16/1 819/18/1 820/19/1
f 821/11/1 822/10/1 823/17/1 824/20/1
f 825/11/1 826/10/1 827/17/1 828/20/1
f 829/11/1 830/10/1 831/17/1 832/20/1
f 833/11/1 834/10/1 835/17/1 836/20/1
f 837/11/1 838/10/1 839/17/1 840/20/1
f 841/11/1 842/10/1 843/17/1 844/20/1
f 845/5/1 846/1/1 847/4/1 848/6/1
f 849/1/1 850/2/1 851/3/1 852/4/1
f 853/5/1 854/1/1 855/4/1 856/6/1
f 857/11/1 858/10/1 859/17/1 860/20/1
f 861/11/1 862/10/1 863/17/1 864/20/1
f 865/11/1 866/10/1 867/17/1 868/20/1
f 869/11/1 870/10/1 871/17/1 872/20/1
f 873/11/1 874/10/1 875/17/1 876/20/1
f 877/11/1 878/10/1 879/17/1 880/20/1
f 881/16/1 882/15/1 883/21/1 884/18/1

