# Tiled2Unity generated file. Do not modify by hand.
# Wavefront file for 'Test-A_mesh_0004.obj'

# Vertices (Count = 260)
v -48 -144 0
v -96 -144 0
v -96 -96 0
v -48 -96 0
v -96 -144 0
v -144 -144 0
v -144 -96 0
v -96 -96 0
v -144 -144 0
v -192 -144 0
v -192 -96 0
v -144 -96 0
v -624 -144 0
v -672 -144 0
v -672 -96 0
v -624 -96 0
v -672 -144 0
v -720 -144 0
v -720 -96 0
v -672 -96 0
v -720 -144 0
v -768 -144 0
v -768 -96 0
v -720 -96 0
v -48 -192 0
v -96 -192 0
v -96 -144 0
v -48 -144 0
v -96 -192 0
v -144 -192 0
v -144 -144 0
v -96 -144 0
v -144 -192 0
v -192 -192 0
v -192 -144 0
v -144 -144 0
v -624 -192 0
v -672 -192 0
v -672 -144 0
v -624 -144 0
v -672 -192 0
v -720 -192 0
v -720 -144 0
v -672 -144 0
v -720 -192 0
v -768 -192 0
v -768 -144 0
v -720 -144 0
v -48 -240 0
v -96 -240 0
v -96 -192 0
v -48 -192 0
v -96 -240 0
v -144 -240 0
v -144 -192 0
v -96 -192 0
v -144 -240 0
v -192 -240 0
v -192 -192 0
v -144 -192 0
v -624 -240 0
v -672 -240 0
v -672 -192 0
v -624 -192 0
v -672 -240 0
v -720 -240 0
v -720 -192 0
v -672 -192 0
v -720 -240 0
v -768 -240 0
v -768 -192 0
v -720 -192 0
v -48 -288 0
v -96 -288 0
v -96 -240 0
v -48 -240 0
v -96 -288 0
v -144 -288 0
v -144 -240 0
v -96 -240 0
v -144 -288 0
v -192 -288 0
v -192 -240 0
v -144 -240 0
v -336 -288 0
v -384 -288 0
v -384 -240 0
v -336 -240 0
v -624 -288 0
v -672 -288 0
v -672 -240 0
v -624 -240 0
v -672 -288 0
v -720 -288 0
v -720 -240 0
v -672 -240 0
v -720 -288 0
v -768 -288 0
v -768 -240 0
v -720 -240 0
v -240 -336 0
v -288 -336 0
v -288 -288 0
v -240 -288 0
v -576 -384 0
v -624 -384 0
v -624 -336 0
v -576 -336 0
v -48 -432 0
v -96 -432 0
v -96 -384 0
v -48 -384 0
v -96 -432 0
v -144 -432 0
v -144 -384 0
v -96 -384 0
v -144 -432 0
v -192 -432 0
v -192 -384 0
v -144 -384 0
v -192 -432 0
v -240 -432 0
v -240 -384 0
v -192 -384 0
v -624 -432 0
v -672 -432 0
v -672 -384 0
v -624 -384 0
v -672 -432 0
v -720 -432 0
v -720 -384 0
v -672 -384 0
v -720 -432 0
v -768 -432 0
v -768 -384 0
v -720 -384 0
v -48 -480 0
v -96 -480 0
v -96 -432 0
v -48 -432 0
v -96 -480 0
v -144 -480 0
v -144 -432 0
v -96 -432 0
v -144 -480 0
v -192 -480 0
v -192 -432 0
v -144 -432 0
v -384 -480 0
v -432 -480 0
v -432 -432 0
v -384 -432 0
v -624 -480 0
v -672 -480 0
v -672 -432 0
v -624 -432 0
v -672 -480 0
v -720 -480 0
v -720 -432 0
v -672 -432 0
v -720 -480 0
v -768 -480 0
v -768 -432 0
v -720 -432 0
v -48 -528 0
v -96 -528 0
v -96 -480 0
v -48 -480 0
v -96 -528 0
v -144 -528 0
v -144 -480 0
v -96 -480 0
v -144 -528 0
v -192 -528 0
v -192 -480 0
v -144 -480 0
v -624 -528 0
v -672 -528 0
v -672 -480 0
v -624 -480 0
v -672 -528 0
v -720 -528 0
v -720 -480 0
v -672 -480 0
v -720 -528 0
v -768 -528 0
v -768 -480 0
v -720 -480 0
v -48 -576 0
v -96 -576 0
v -96 -528 0
v -48 -528 0
v -96 -576 0
v -144 -576 0
v -144 -528 0
v -96 -528 0
v -144 -576 0
v -192 -576 0
v -192 -528 0
v -144 -528 0
v -192 -576 0
v -240 -576 0
v -240 -528 0
v -192 -528 0
v -240 -576 0
v -288 -576 0
v -288 -528 0
v -240 -528 0
v -288 -576 0
v -336 -576 0
v -336 -528 0
v -288 -528 0
v -480 -576 0
v -528 -576 0
v -528 -528 0
v -480 -528 0
v -528 -576 0
v -576 -576 0
v -576 -528 0
v -528 -528 0
v -576 -576 0
v -624 -576 0
v -624 -528 0
v -576 -528 0
v -624 -576 0
v -672 -576 0
v -672 -528 0
v -624 -528 0
v -672 -576 0
v -720 -576 0
v -720 -528 0
v -672 -528 0
v -720 -576 0
v -768 -576 0
v -768 -528 0
v -720 -528 0
v -192 -624 0
v -240 -624 0
v -240 -576 0
v -192 -576 0
v -240 -624 0
v -288 -624 0
v -288 -576 0
v -240 -576 0
v -288 -624 0
v -336 -624 0
v -336 -576 0
v -288 -576 0
v -480 -624 0
v -528 -624 0
v -528 -576 0
v -480 -576 0
v -528 -624 0
v -576 -624 0
v -576 -576 0
v -528 -576 0
v -576 -624 0
v -624 -624 0
v -624 -576 0
v -576 -576 0

# Texture cooridinates (Count = 62)
vt 0 0.9375
vt 0.0625 0.9375
vt 0.0625 1
vt 0 1
vt 0.125 0.9375
vt 0.125 1
vt 0.1875 0.9375
vt 0.1875 1
vt 0 0.875
vt 0.0625 0.875
vt 0.125 0.875
vt 0.1875 0.875
vt 0 0.8125
vt 0.0625 0.8125
vt 0.125 0.8125
vt 0.1875 0.8125
vt 0 0.75
vt 0.0625 0.75
vt 0.125 0.75
vt 0.1875 0.75
vt 0.5 0.875
vt 0.5625 0.875
vt 0.5625 0.9375
vt 0.5 0.9375
vt 0.4375 0.625
vt 0.5 0.625
vt 0.5 0.6875
vt 0.4375 0.6875
vt 0.375 0.6875
vt 0.4375 0.75
vt 0.375 0.75
vt 0.25 0.9375
vt 0.25 1
vt 0.3125 0.9375
vt 0.3125 1
vt 0.375 0.9375
vt 0.375 1
vt 0.0625 0.5
vt 0.125 0.5
vt 0.125 0.5625
vt 0.0625 0.5625
vt 0.25 0.875
vt 0.3125 0.875
vt 0.375 0.875
vt 0.25 0.8125
vt 0.3125 0.8125
vt 0.375 0.8125
vt 0.1875 0.6875
vt 0.25 0.6875
vt 0.25 0.75
vt 0.3125 0.6875
vt 0.3125 0.75
vt 0 0.6875
vt 0.0625 0.6875
vt 0.125 0.6875
vt 0.1875 0.625
vt 0.25 0.625
vt 0.3125 0.625
vt 0.375 0.625
vt 0 0.625
vt 0.0625 0.625
vt 0.125 0.625

# Normal
vn 0 0 -1

# Mesh description
g Test-A_mesh_0004

# Faces
f 1/1/1 2/2/1 3/3/1 4/4/1
f 5/2/1 6/5/1 7/6/1 8/3/1
f 9/5/1 10/7/1 11/8/1 12/6/1
f 13/1/1 14/2/1 15/3/1 16/4/1
f 17/2/1 18/5/1 19/6/1 20/3/1
f 21/5/1 22/7/1 23/8/1 24/6/1
f 25/9/1 26/10/1 27/2/1 28/1/1
f 29/10/1 30/11/1 31/5/1 32/2/1
f 33/11/1 34/12/1 35/7/1 36/5/1
f 37/9/1 38/10/1 39/2/1 40/1/1
f 41/10/1 42/11/1 43/5/1 44/2/1
f 45/11/1 46/12/1 47/7/1 48/5/1
f 49/13/1 50/14/1 51/10/1 52/9/1
f 53/14/1 54/15/1 55/11/1 56/10/1
f 57/15/1 58/16/1 59/12/1 60/11/1
f 61/13/1 62/14/1 63/10/1 64/9/1
f 65/14/1 66/15/1 67/11/1 68/10/1
f 69/15/1 70/16/1 71/12/1 72/11/1
f 73/17/1 74/18/1 75/14/1 76/13/1
f 77/18/1 78/19/1 79/15/1 80/14/1
f 81/19/1 82/20/1 83/16/1 84/15/1
f 85/21/1 86/22/1 87/23/1 88/24/1
f 89/17/1 90/18/1 91/14/1 92/13/1
f 93/18/1 94/19/1 95/15/1 96/14/1
f 97/19/1 98/20/1 99/16/1 100/15/1
f 101/25/1 102/26/1 103/27/1 104/28/1
f 105/29/1 106/28/1 107/30/1 108/31/1
f 109/1/1 110/2/1 111/3/1 112/4/1
f 113/2/1 114/5/1 115/6/1 116/3/1
f 117/5/1 118/7/1 119/8/1 120/6/1
f 121/25/1 122/26/1 123/27/1 124/28/1
f 125/7/1 126/32/1 127/33/1 128/8/1
f 129/32/1 130/34/1 131/35/1 132/33/1
f 133/34/1 134/36/1 135/37/1 136/35/1
f 137/9/1 138/10/1 139/2/1 140/1/1
f 141/10/1 142/11/1 143/5/1 144/2/1
f 145/11/1 146/12/1 147/7/1 148/5/1
f 149/38/1 150/39/1 151/40/1 152/41/1
f 153/12/1 154/42/1 155/32/1 156/7/1
f 157/42/1 158/43/1 159/34/1 160/32/1
f 161/43/1 162/44/1 163/36/1 164/34/1
f 165/13/1 166/14/1 167/10/1 168/9/1
f 169/14/1 170/15/1 171/11/1 172/10/1
f 173/15/1 174/16/1 175/12/1 176/11/1
f 177/16/1 178/45/1 179/42/1 180/12/1
f 181/45/1 182/46/1 183/43/1 184/42/1
f 185/46/1 186/47/1 187/44/1 188/43/1
f 189/17/1 190/18/1 191/14/1 192/13/1
f 193/18/1 194/19/1 195/15/1 196/14/1
f 197/19/1 198/20/1 199/16/1 200/15/1
f 201/48/1 202/49/1 203/50/1 204/20/1
f 205/49/1 206/51/1 207/52/1 208/50/1
f 209/51/1 210/29/1 211/31/1 212/52/1
f 213/53/1 214/54/1 215/18/1 216/17/1
f 217/54/1 218/55/1 219/19/1 220/18/1
f 221/55/1 222/48/1 223/20/1 224/19/1
f 225/20/1 226/50/1 227/45/1 228/16/1
f 229/50/1 230/52/1 231/46/1 232/45/1
f 233/52/1 234/31/1 235/47/1 236/46/1
f 237/56/1 238/57/1 239/49/1 240/48/1
f 241/57/1 242/58/1 243/51/1 244/49/1
f 245/58/1 246/59/1 247/29/1 248/51/1
f 249/60/1 250/61/1 251/54/1 252/53/1
f 253/61/1 254/62/1 255/55/1 256/54/1
f 257/62/1 258/56/1 259/48/1 260/55/1

